<?xml version="1.0" encoding="UTF-8"?>
<svg id="Layer_1" data-name="Layer 1" xmlns="http://www.w3.org/2000/svg" viewBox="0 0 520.03 225.08">
  <defs>
    <style>
      .cls-1 {
        fill: #1397c1;
      }

      .cls-1, .cls-2 {
        stroke-width: 0px;
      }

      .cls-2 {
        fill: #ffc526;
      }
    </style>
  </defs>
  <circle class="cls-1" cx="440.32" cy="139.84" r="3.38"/>
  <path class="cls-1" d="M137.23,104.4l65.54-56.78c6.5-6.07,17.05-.94,16.31,7.91l-8.7,87.56c-.59,6.98-8.14,11.06-14.3,7.73l-56.85-30.78c-5.84-3.16-6.85-11.11-2-15.64Z"/>
  <g>
    <path class="cls-1" d="M218.95,123.05c0-12.85,7.13-21,19.98-21s19.98,8.15,19.98,21-7.13,21-19.98,21-19.98-8.15-19.98-21ZM250.61,123.05c0-9.72-4.23-14.65-11.68-14.65s-11.68,4.94-11.68,14.65,4.23,14.65,11.68,14.65,11.68-4.86,11.68-14.65Z"/>
    <path class="cls-1" d="M263.69,139.88v-33.66c0-1.87,1.52-3.39,3.39-3.39h1.14c1.87,0,3.39,1.52,3.39,3.39v5.94c2.12-7.13,5.72-9.8,11.6-9.8.16,0,.33,0,.51.01,1.78.09,3.17,1.59,3.17,3.38v.84c0,1.92-1.6,3.46-3.52,3.38l-.48-.02c-6.58,0-10.89,5.09-10.89,14.1v15.81c0,1.87-1.52,3.39-3.39,3.39h-1.53c-1.87,0-3.39-1.52-3.39-3.39Z"/>
    <path class="cls-1" d="M318.95,141.83l-12.07-17.06-6.9,6.74v8.37c0,1.87-1.52,3.39-3.39,3.39h-1.53c-1.87,0-3.39-1.52-3.39-3.39v-49.02c0-1.87,1.52-3.39,3.39-3.39h1.53c1.87,0,3.39,1.52,3.39,3.39v31.25l18.21-18.28c.64-.64,1.5-1,2.4-1h0c3.02,0,4.53,3.66,2.38,5.79l-10.45,10.35,13.33,18.96c1.58,2.24-.03,5.33-2.77,5.33h-1.36c-1.1,0-2.13-.53-2.76-1.43Z"/>
  </g>
  <path class="cls-1" d="M436.6,118.8c-.13-.27-.51-1.04-1.33-1.41-1.21-.55-2.53.14-2.75.26-1.48.78-2.1,2.33-2.35,2.98-1.03,2.7-4.59,12.33-7.62,15.73-.53.59-1.11,1.03-1.61.93-.93-.16-1.09-1.41-1-2.35.65-7.9,1.92-15.8,1.43-23.71-.14-2.41-.48-4.88-1.58-7.03-1.1-2.16-3.09-3.98-5.48-4.33-2.05-.3-4.11.5-5.89,1.56-1,.6-1.99,1.28-2.59,1.72-1.12.83-2,1.6-2.62,2.18.15-1.7-.54-3.27-1.77-3.98-.32-.18-1.24-.64-2.34-.38-.95.23-1.52.87-1.73,1.12-1.15,1.35-1.13,3.34-1.12,4.83,0,2.97-.01,5.95-.03,8.92,0,1.88-.31,3.74-.91,5.52,0,.01,0,.02,0,.03-2.19,6.46-5.51,12.53-9.77,17.87-.84-10.35-.9-20.77-.19-31.13.09-1.3.19-2.66-.21-3.9-.41-1.25-1.44-2.4-2.74-2.51-1.59-.13-2.72,1.37-2.89,1.61-.71.98-.73,1.96-.8,3.1-.08,1.39-.11,2.79-.12,4.19-.02,2.6.08,4.72-.12,8.38-.32,5.82-1.42,9.18-1.77,10.18-.72,2.09-1.44,3.42-2.43,4.61-.49.6-3.05,3.67-5.18,3.02-.41-.12-.77-.38-1.26-.96-1.84-2.19-2.17-5.1-2.33-8.4-.12-2.6-.19-3.89-.07-5.97.29-5.29,1.5-14.01.41-16.76-.45-1.15-1.31-1.74-1.31-1.74-1.85-1.31-3.76-.1-4.6,1.49-.59,1.13-.73,2.44-.87,3.73-.27,2.71-.49,5.43-.62,8.16-.1,1.9-.45,3.77-1.02,5.58,0,.01,0,.02-.01.03-.67,2.12-1.35,3.89-2.03,5.34-.71,1.48-1.61,3.09-2.75,4.91-2.29,3.51-3.89,5.29-4.91,5.29-2.71,0-4.87-4.78-6.52-14.31l-.89-5.16c2.2-2.71,4.48-6.27,6.9-10.67,2.24-4.19,3.98-7.87,5.16-11.05,1.65-4.95,2.45-9.53,2.45-13.76,0-8-2.33-12.11-6.94-12.32l-.8-.04c-1.69,0-3.21.51-4.57,1.57-1.35,1.06-2.71,3-4.06,5.84-1.52,3.14-2.71,6.31-3.47,9.48-1.23,5.12-1.82,11.85-1.82,20.2,0,2.45.06,4.78.18,6.98-1.27,1.22-2.55,2.42-3.85,3.61-1.1,1-2.24,2.05-2.88,3.39-.65,1.35-.69,3.1.3,4.22,1.21,1.35,3.32,1,3.65.94,1.35-.25,2.14-1.06,3.09-1.94.23-.22.46-.43.69-.65,1,6.13,2.33,10.8,4,13.93,1.78,3.34,4.19,5.42,7.16,6.22.76.21,1.48.34,2.2.34,3.73,0,7.33-2.84,10.75-8.51.41-.66.79-1.31,1.15-1.96.68,2.88,1.83,5.62,4.08,7.72.94.88,2.06,1.57,3.3,1.94,4.77,1.43,8.25-1.94,11.23-5.05.34,2.47.51,4.97.49,7.47,0,.65-.02,1.3-.22,1.92-.29.87-.93,1.56-1.54,2.23-1.66,1.79-3.3,3.57-4.96,5.36-2.91,3.15-5.84,6.33-8,10.04-3.39,5.82-4.55,13.26.08,18.76,1.17,1.39,2.77,2.83,4.52,3.38,3.45,1.07,8.07.78,11.06-1.41,1.52-1.12,2.61-2.74,3.35-4.47,2.47-5.81,2.45-12.73,2.55-18.93.05-3.41.05-6.83.01-10.25,0-.78-.01-1.59.25-2.31.27-.71.78-1.3,1.27-1.88,3.36-3.92,6.5-8.09,9.14-12.52,0,.7,0,1.41,0,2.11,0,1.79.1,3.82,1.46,4.97,1.39,1.19,3.83.73,4.71-.87.43-.77.5-1.67.54-2.55.12-2.16.12-4.33.11-6.5,0-4.14-.01-8.29-.02-12.43,0-2.16,0-4.39.87-6.37.6-1.39,1.58-2.57,2.62-3.66,1.29-1.35,2.71-2.61,4.37-3.47.49-.25,1.04-.48,1.59-.39,1.22.21,1.63,1.72,1.75,2.95.71,7.46-.03,14.98-.44,22.47-.12,2.21-.2,4.46.36,6.61.34,1.3,1.31,3.95,3.88,5.12,2.62,1.2,5.27.08,5.97-.23,1.06-.45,2.47-1.3,4.97-4.84,1.22-1.73,2.49-3.79,4.75-8.62,2.83-6.07,3.9-9.42,2.95-11.35ZM340.12,106.1c-.12,0-.16-.42-.16-1.31,0-2.71.21-6.14.67-10.29.55-5.25,1.99-10.07,4.28-14.48.95-1.83,1.68-2.8,2.25-2.69,1.01.21,1.17,3.81,1.11,5.78-.02.49-.08,1.81-.75,4.79-.49,2.17-1.26,5.6-3.07,9.74-.6,1.38-1.29,2.71-1.96,4.07-1.44,2.92-2.24,4.4-2.37,4.4ZM379.13,165.96c0,5.1-.04,8.36-1.41,12.13-.64,1.74-1.32,2.92-2.54,3.72-1.4.92-3.47,1.33-5.12.54-2.4-1.14-2.87-4.29-3.08-5.7-1.3-8.62,10.4-17.78,12.16-19.13,0,1.16,0,4.26,0,8.43Z"/>
  <path class="cls-2" d="M176.65,108.59l-82.93-61.74c-8.9-5.8-20.13,2.85-16.79,12.93l34.85,105.08c2.54,7.65,12.07,10.21,18.1,4.86l48.08-43.34c5.54-4.91,4.88-13.75-1.32-17.8Z"/>
</svg>